<?xml version="1.0" encoding="UTF-8"?>
<svg xmlns="http://www.w3.org/2000/svg" xmlns:xlink="http://www.w3.org/1999/xlink" width="265px" height="300px" viewBox="0 0 265 299" version="1.1">
<g id="surface1">
<path style=" stroke:none;fill-rule:nonzero;fill:rgb(97.254902%,65.882353%,67.058824%);fill-opacity:1;" d="M 135.027344 163.871094 C 135.929688 168.371094 139.152344 171.292969 142.222656 170.386719 C 145.296875 169.484375 147.054688 165.101562 146.152344 160.597656 C 145.8125 158.792969 145.023438 157.136719 143.84375 155.785156 L 139.765625 136.78125 L 130.234375 139.902344 L 135.269531 158.304688 C 134.730469 160.171875 134.648438 162.082031 135.039062 163.871094 Z M 135.027344 163.871094 "/>
<path style=" stroke:none;fill-rule:nonzero;fill:rgb(97.254902%,65.882353%,67.058824%);fill-opacity:1;" d="M 113.546875 288.824219 L 124.734375 288.824219 L 124.734375 273.050781 L 113.546875 273.050781 Z M 113.546875 288.824219 "/>
<path style=" stroke:none;fill-rule:nonzero;fill:rgb(18.431373%,18.039216%,26.27451%);fill-opacity:1;" d="M 123.492188 297.859375 C 121.582031 298.027344 112.007812 298.78125 111.527344 296.601562 C 111.089844 294.597656 111.734375 292.507812 111.824219 292.222656 C 112.746094 283.121094 113.085938 283.023438 113.292969 282.964844 C 113.621094 282.867188 114.570312 283.320312 116.117188 284.304688 L 116.210938 284.371094 L 116.234375 284.480469 C 116.261719 284.625 116.945312 287.964844 120.1875 287.449219 C 122.410156 287.097656 123.128906 286.609375 123.359375 286.371094 C 123.171875 286.285156 122.9375 286.136719 122.773438 285.882812 C 122.53125 285.511719 122.488281 285.035156 122.648438 284.460938 C 123.066406 282.949219 124.316406 280.710938 124.371094 280.621094 L 124.515625 280.367188 L 137.230469 288.894531 L 145.082031 291.121094 C 145.675781 291.292969 146.152344 291.710938 146.390625 292.273438 C 146.722656 293.058594 146.519531 293.972656 145.878906 294.546875 C 144.453125 295.820312 141.621094 298 138.644531 298.273438 C 137.855469 298.347656 136.808594 298.375 135.632812 298.375 C 130.722656 298.375 123.550781 297.871094 123.5 297.859375 Z M 123.492188 297.859375 "/>
<path style=" stroke:none;fill-rule:nonzero;fill:rgb(97.254902%,65.882353%,67.058824%);fill-opacity:1;" d="M 82.554688 288.824219 L 93.742188 288.824219 L 93.742188 273.050781 L 82.554688 273.050781 Z M 82.554688 288.824219 "/>
<path style=" stroke:none;fill-rule:nonzero;fill:rgb(18.431373%,18.039216%,26.27451%);fill-opacity:1;" d="M 92.5 297.859375 C 90.589844 298.027344 81.015625 298.78125 80.535156 296.601562 C 80.097656 294.597656 80.742188 292.507812 80.835938 292.222656 C 81.753906 283.121094 82.09375 283.023438 82.300781 282.964844 C 82.628906 282.867188 83.578125 283.320312 85.125 284.304688 L 85.21875 284.371094 L 85.242188 284.480469 C 85.269531 284.625 85.953125 287.964844 89.195312 287.449219 C 91.417969 287.097656 92.136719 286.609375 92.367188 286.371094 C 92.179688 286.285156 91.945312 286.136719 91.78125 285.882812 C 91.539062 285.511719 91.496094 285.035156 91.65625 284.460938 C 92.074219 282.949219 93.324219 280.710938 93.378906 280.621094 L 93.523438 280.367188 L 106.238281 288.894531 L 114.089844 291.121094 C 114.683594 291.292969 115.160156 291.710938 115.398438 292.273438 C 115.730469 293.058594 115.527344 293.972656 114.886719 294.546875 C 113.460938 295.820312 110.628906 298 107.652344 298.273438 C 106.863281 298.347656 105.816406 298.375 104.640625 298.375 C 99.730469 298.375 92.5625 297.871094 92.507812 297.859375 Z M 92.5 297.859375 "/>
<path style=" stroke:none;fill-rule:nonzero;fill:rgb(97.254902%,65.882353%,67.058824%);fill-opacity:1;" d="M 91.621094 53.234375 L 108.96875 58.898438 L 108.96875 34.085938 L 93.226562 34.085938 Z M 91.621094 53.234375 "/>
<path style=" stroke:none;fill-rule:nonzero;fill:rgb(97.254902%,65.882353%,67.058824%);fill-opacity:1;" d="M 106.820312 40.953125 C 116.363281 40.953125 124.101562 33.265625 124.101562 23.78125 C 124.101562 14.296875 116.363281 6.609375 106.820312 6.609375 C 97.273438 6.609375 89.535156 14.296875 89.535156 23.78125 C 89.535156 33.265625 97.273438 40.953125 106.820312 40.953125 Z M 106.820312 40.953125 "/>
<path style=" stroke:none;fill-rule:nonzero;fill:rgb(18.431373%,18.039216%,26.27451%);fill-opacity:1;" d="M 102.417969 25.125 L 104.800781 27.996094 L 109.113281 20.5 C 109.113281 20.5 114.613281 20.78125 114.613281 16.726562 C 114.613281 12.671875 119.664062 12.554688 119.664062 12.554688 C 119.664062 12.554688 126.804688 0.160156 112.007812 3.425781 C 112.007812 3.425781 101.746094 -3.5625 96.636719 2.410156 C 96.636719 2.410156 80.984375 10.238281 85.464844 23.878906 L 92.90625 37.933594 L 94.597656 34.753906 C 94.597656 34.753906 93.574219 21.398438 102.421875 25.121094 Z M 102.417969 25.125 "/>
<path style=" stroke:none;fill-rule:nonzero;fill:rgb(28.235294%,27.058824%,39.607843%);fill-opacity:1;" d="M -22.234375 298.367188 C -22.234375 298.71875 -21.949219 299 -21.597656 299 L 264.363281 299 C 264.71875 299 265 298.71875 265 298.367188 C 265 298.019531 264.71875 297.738281 264.363281 297.738281 L -21.597656 297.738281 C -21.949219 297.738281 -22.234375 298.019531 -22.234375 298.367188 Z M -22.234375 298.367188 "/>
<path style=" stroke:none;fill-rule:nonzero;fill:rgb(88.627451%,89.019608%,89.411765%);fill-opacity:1;" d="M 153.425781 185.269531 L 120.769531 174.835938 C 116.742188 173.550781 112.414062 175.703125 111.039062 179.683594 L 96.285156 222.4375 C 94.777344 226.800781 97.4375 231.492188 101.972656 232.480469 L 139.511719 240.640625 C 143.636719 241.535156 147.726562 238.992188 148.722656 234.917969 L 158.597656 194.4375 C 159.554688 190.507812 157.300781 186.503906 153.425781 185.269531 Z M 153.425781 185.269531 "/>
<path style=" stroke:none;fill-rule:nonzero;fill:rgb(18.431373%,18.039216%,26.27451%);fill-opacity:1;" d="M 150.113281 194.285156 L 148.011719 193.914062 C 149.355469 186.3125 151.214844 166.046875 143.710938 163.5625 C 140.070312 162.355469 136.40625 164.464844 132.820312 169.832031 C 130.007812 174.050781 128.359375 178.722656 128.34375 178.769531 L 126.324219 178.074219 C 126.613281 177.253906 133.480469 157.933594 144.382812 161.542969 C 155.160156 165.113281 150.324219 193.09375 150.109375 194.28125 Z M 150.113281 194.285156 "/>
<path style=" stroke:none;fill-rule:nonzero;fill:rgb(18.431373%,18.039216%,26.27451%);fill-opacity:1;" d="M 125.351562 134.933594 L 66.976562 134.933594 L 81.261719 281.28125 L 97.824219 280.21875 L 98.640625 174.828125 L 109.0625 221.078125 L 112.113281 279.421875 L 127.207031 280.21875 L 128.957031 213.847656 Z M 125.351562 134.933594 "/>
<path style=" stroke:none;fill-rule:nonzero;fill:rgb(17.647059%,72.54902%,26.666667%);fill-opacity:1;" d="M 90.675781 44.160156 L 110.441406 48.9375 L 127.339844 121.5 L 125.351562 134.933594 L 75.855469 143.257812 L 66.976562 134.933594 Z M 90.675781 44.160156 "/>
<path style=" stroke:none;fill-rule:nonzero;fill:rgb(18.431373%,18.039216%,26.27451%);fill-opacity:1;" d="M 90.644531 40.53125 L 83.882812 48.0625 L 70.175781 51.332031 L 46.800781 154.589844 L 91.839844 162.171875 L 104.382812 57.007812 Z M 90.644531 40.53125 "/>
<path style=" stroke:none;fill-rule:nonzero;fill:rgb(18.431373%,18.039216%,26.27451%);fill-opacity:1;" d="M 110.429688 44.292969 L 106.90625 56.777344 L 123.226562 168.742188 L 131.644531 168.742188 L 127.761719 59.179688 L 116.328125 50.152344 Z M 110.429688 44.292969 "/>
<path style=" stroke:none;fill-rule:nonzero;fill:rgb(18.431373%,18.039216%,26.27451%);fill-opacity:1;" d="M 120.980469 57.792969 L 127.761719 59.179688 C 127.761719 59.179688 130.734375 60.261719 131.8125 68.648438 C 132.886719 77.035156 133.078125 105.203125 133.078125 105.203125 L 144.605469 150.640625 L 131.511719 154.929688 L 125.347656 130.480469 L 120.976562 57.785156 Z M 120.980469 57.792969 "/>
<path style=" stroke:none;fill-rule:nonzero;fill:rgb(18.431373%,18.039216%,26.27451%);fill-opacity:1;" d="M 109.671875 51.964844 L 106.390625 57.941406 L 112.953125 128.054688 L 105.296875 135.121094 L 98.1875 128.601562 L 103.382812 58.210938 L 95.808594 51.964844 L 98.457031 50.058594 L 101.195312 53.316406 L 106.664062 52.234375 L 108.847656 48.96875 Z M 109.671875 51.964844 "/>
<path style=" stroke:none;fill-rule:nonzero;fill:rgb(97.254902%,65.882353%,67.058824%);fill-opacity:1;" d="M 77.453125 146.25 C 80.203125 149.941406 84.371094 151.210938 86.757812 149.089844 C 89.148438 146.972656 88.851562 142.265625 86.101562 138.570312 C 85.023438 137.078125 83.597656 135.921875 81.941406 135.199219 L 70.078125 119.746094 L 62.800781 126.617188 L 75.265625 141.117188 C 75.582031 143.035156 76.332031 144.792969 77.453125 146.246094 Z M 77.453125 146.25 "/>
<path style=" stroke:none;fill-rule:nonzero;fill:rgb(18.431373%,18.039216%,26.27451%);fill-opacity:1;" d="M 75.59375 53.027344 L 70.175781 51.332031 C 70.175781 51.332031 62.835938 53.140625 60.402344 62.25 L 48.539062 106.628906 L 68.664062 141.726562 L 79.417969 128.753906 L 69.289062 96.53125 L 75.597656 53.027344 Z M 75.59375 53.027344 "/>
</g>
</svg>
